<svg height="830" width="720" xmlns="http://www.w3.org/2000/svg">
<rect height="830" fill="#555" width="720"></rect>
<text fill="#7f7" font-family="Courier New" font-size="12" xml:space="preserve">
<tspan x="10" y="26">5 megabytes installed</tspan>
<tspan x="10" y="42"></tspan>
<tspan x="10" y="58">node_modules</tspan>
<tspan x="10" y="74">└─┬ geojsonhint@2.0.0 </tspan>
<tspan x="10" y="90">  ├─┬ concat-stream@1.5.2 </tspan>
<tspan x="10" y="106">  │ ├── inherits@2.0.3 </tspan>
<tspan x="10" y="122">  │ ├─┬ readable-stream@2.0.6 </tspan>
<tspan x="10" y="138">  │ │ ├── core-util-is@1.0.2 </tspan>
<tspan x="10" y="154">  │ │ ├── isarray@1.0.0 </tspan>
<tspan x="10" y="170">  │ │ ├── process-nextick-args@1.0.7 </tspan>
<tspan x="10" y="186">  │ │ ├── string_decoder@0.10.31 </tspan>
<tspan x="10" y="202">  │ │ └── util-deprecate@1.0.2 </tspan>
<tspan x="10" y="218">  │ └── typedarray@0.0.6 </tspan>
<tspan x="10" y="234">  ├─┬ jsonlint-lines@1.7.1 </tspan>
<tspan x="10" y="250">  │ ├── JSV@4.0.2 </tspan>
<tspan x="10" y="266">  │ └─┬ nomnom@1.8.1 </tspan>
<tspan x="10" y="282">  │   ├─┬ chalk@0.4.0 </tspan>
<tspan x="10" y="298">  │   │ ├── ansi-styles@1.0.0 </tspan>
<tspan x="10" y="314">  │   │ ├── has-color@0.1.7 </tspan>
<tspan x="10" y="330">  │   │ └── strip-ansi@0.1.1 </tspan>
<tspan x="10" y="346">  │   └── underscore@1.6.0 </tspan>
<tspan x="10" y="362">  ├── minimist@1.2.0 </tspan>
<tspan x="10" y="378">  ├─┬ vfile@2.0.0 </tspan>
<tspan x="10" y="394">  │ ├─┬ has@1.0.1 </tspan>
<tspan x="10" y="410">  │ │ └── function-bind@1.1.0 </tspan>
<tspan x="10" y="426">  │ ├── is-buffer@1.1.5 </tspan>
<tspan x="10" y="442">  │ ├── replace-ext@1.0.0 </tspan>
<tspan x="10" y="458">  │ ├── unist-util-stringify-position@1.1.0 </tspan>
<tspan x="10" y="474">  │ └── x-is-string@0.1.0 </tspan>
<tspan x="10" y="490">  └─┬ vfile-reporter@3.0.0 </tspan>
<tspan x="10" y="506">    ├─┬ chalk@1.1.3 </tspan>
<tspan x="10" y="522">    │ ├── ansi-styles@2.2.1 </tspan>
<tspan x="10" y="538">    │ ├── escape-string-regexp@1.0.5 </tspan>
<tspan x="10" y="554">    │ ├── has-ansi@2.0.0 </tspan>
<tspan x="10" y="570">    │ └── supports-color@2.0.0 </tspan>
<tspan x="10" y="586">    ├─┬ log-symbols@1.0.2 </tspan>
<tspan x="10" y="602">    │ └─┬ chalk@1.1.3 </tspan>
<tspan x="10" y="618">    │   ├── ansi-styles@2.2.1 </tspan>
<tspan x="10" y="634">    │   └── strip-ansi@3.0.1 </tspan>
<tspan x="10" y="650">    ├─┬ plur@2.1.2 </tspan>
<tspan x="10" y="666">    │ └── irregular-plurals@1.2.0 </tspan>
<tspan x="10" y="682">    ├── repeat-string@1.6.1 </tspan>
<tspan x="10" y="698">    ├─┬ string-width@1.0.2 </tspan>
<tspan x="10" y="714">    │ ├── code-point-at@1.1.0 </tspan>
<tspan x="10" y="730">    │ ├─┬ is-fullwidth-code-point@1.0.0 </tspan>
<tspan x="10" y="746">    │ │ └── number-is-nan@1.0.1 </tspan>
<tspan x="10" y="762">    │ └── strip-ansi@3.0.1 </tspan>
<tspan x="10" y="778">    ├─┬ strip-ansi@3.0.1 </tspan>
<tspan x="10" y="794">    │ └── ansi-regex@2.1.1 </tspan>
<tspan x="10" y="810">    └── trim@0.0.1</tspan>
</text>
</svg>
